<?xml version="1.0" encoding="UTF-8"?>
<svg version="1.1" xmlns="http://www.w3.org/2000/svg" width="946" height="946">
<path d="M0 0 C1.94877734 -0.00525911 1.94877734 -0.00525911 3.93692392 -0.01062447 C7.53877193 -0.0200543 11.14051842 -0.01709099 14.74237132 -0.01206893 C18.66267763 -0.00879646 22.5829625 -0.01708969 26.50326192 -0.02388728 C33.37288316 -0.03418793 40.24247622 -0.03703095 47.11210442 -0.03497505 C57.32777255 -0.03192524 67.54340949 -0.04024864 77.75907155 -0.0507243 C97.06647227 -0.07006983 116.37386236 -0.07569274 135.68127163 -0.07683842 C150.59178224 -0.07775741 165.50228868 -0.0818736 180.41279793 -0.08823967 C184.70438142 -0.09003475 188.99596492 -0.09181438 193.28754842 -0.09358943 C194.88789173 -0.09425257 194.88789173 -0.09425257 196.52056522 -0.09492911 C226.53222883 -0.10723825 256.543891 -0.11513017 286.55555725 -0.11424255 C287.68715579 -0.1142114 288.81875433 -0.11418024 289.98464373 -0.11414814 C295.7200836 -0.11398192 301.45552347 -0.11378384 307.19096334 -0.11357872 C308.89958749 -0.11351889 308.89958749 -0.11351889 310.6427293 -0.11345784 C312.94623284 -0.11337697 315.24973638 -0.11329337 317.55323992 -0.11320706 C353.39012567 -0.11198161 389.22697358 -0.12699325 425.0638485 -0.15435219 C465.32491156 -0.18507601 505.58594975 -0.20228449 545.84702528 -0.20042574 C550.1404949 -0.20027648 554.43396453 -0.20017907 558.72743416 -0.20011711 C559.78459758 -0.2000938 560.841761 -0.20007049 561.93095967 -0.20004648 C578.94067364 -0.19998494 595.95035475 -0.21275465 612.96005895 -0.22998164 C630.05696124 -0.24693874 647.15381548 -0.24891135 664.25072153 -0.235763 C674.40566829 -0.22837432 684.56046899 -0.23202939 694.71540027 -0.25164768 C701.50323011 -0.26365223 708.29095424 -0.2610513 715.07877925 -0.24670668 C718.94329657 -0.2389477 722.80753139 -0.23738004 726.67202874 -0.25362138 C755.87309219 -0.36836231 755.87309219 -0.36836231 767.97156334 4.25726891 C769.05565062 4.6352936 770.1397379 5.0133183 771.25667632 5.4027983 C784.24038848 10.06401211 794.95630732 18.99965725 801.22156334 31.31976891 C809.58920937 52.67169327 809.08724904 82.61579571 800.94421959 103.94867516 C797.84545146 110.46601311 792.43236021 114.72188952 786.97156334 119.25726891 C774.68494905 129.6586355 768.53745678 139.52535002 764.53015709 155.26508141 C764.08717529 156.95868294 764.08717529 156.95868294 763.63524437 158.68649864 C760.50980218 170.77594271 757.74383935 182.94423343 755.03406334 195.13226891 C754.55604433 197.26258873 754.07752802 199.39279703 753.59851646 201.52289391 C751.60417803 210.40697431 749.61823813 219.29283374 747.67225266 228.18764305 C742.12348185 253.54381255 736.13722721 278.78824789 730.08758354 304.02905083 C727.59474443 314.43206639 725.10745222 324.83640588 722.62390709 335.24164391 C722.3455275 336.40769032 722.0671479 337.57373672 721.78033257 338.77511787 C718.00494439 354.59948089 714.28922981 370.43651948 710.64216995 386.29094887 C709.91994557 389.43007306 709.19627208 392.56885986 708.47218895 395.70755577 C706.43986577 404.52094893 704.4116997 413.33510074 702.41239262 422.15604973 C701.59795189 425.73787427 700.77333505 429.31730477 699.94629288 432.89623833 C699.57294204 434.52199738 699.20385846 436.14874468 698.83986664 437.77662468 C692.20701303 467.41782029 679.71820846 495.79212386 653.47156334 513.00726891 C651.64981519 514.10997281 649.8168511 515.19442588 647.97156334 516.25726891 C647.19425865 516.70844078 646.41695396 517.15961266 645.61609459 517.62445641 C634.38124364 523.68412476 621.42227222 527.41587673 608.68603611 527.39148998 C607.85100383 527.39384221 607.01597155 527.39619444 606.15563527 527.39861795 C603.34501262 527.40529861 600.5344363 527.40485001 597.72380638 527.40443993 C595.69324209 527.40773915 593.66267846 527.41146484 591.63211566 527.41558141 C586.04192379 527.42560318 580.45174265 527.4293185 574.86154306 527.43197072 C568.83604245 527.43587331 562.81055034 527.44545178 556.78505516 527.45418358 C542.9152738 527.47301619 529.0454918 527.48320502 515.1757013 527.49164426 C508.31869761 527.49585249 501.4616948 527.50107431 494.60469185 527.50632879 C471.12349513 527.52422025 447.64229814 527.53921454 424.16109562 527.54664898 C422.68705586 527.54712373 421.2130161 527.54759962 419.73897635 527.54807664 C419.00799684 527.54831302 418.27701733 527.54854939 417.52388692 527.54879293 C413.82049195 527.54999411 410.11709698 527.55120956 406.41370201 527.55243492 C405.31128344 527.55279515 405.31128344 527.55279515 404.18659379 527.55316265 C380.37192777 527.56105097 356.55731163 527.5844725 332.74266738 527.61699087 C307.5537456 527.65132283 282.36485299 527.67100333 257.17590743 527.67429322 C254.40821094 527.67471074 251.64051447 527.6751903 248.87281799 527.6757164 C247.85062039 527.67590119 247.85062039 527.67590119 246.80777233 527.67608971 C235.86053599 527.67841777 224.91335774 527.69405587 213.96614207 527.71455825 C202.9514611 527.73485884 191.93684017 527.73994135 180.92214253 527.73078761 C174.95969485 527.72624739 168.99743503 527.72811325 163.0350132 527.74754906 C157.568736 527.76521315 152.10278328 527.76415644 146.63650248 527.74865177 C144.66665898 527.74628063 142.69679281 527.75057335 140.72698387 527.76248042 C124.56733472 527.85405364 110.54154338 525.79728902 95.97156334 518.25726891 C95.09371178 517.83961266 94.21586021 517.42195641 93.31140709 516.99164391 C71.18912398 505.91458704 55.73431091 484.34653433 47.67686081 461.39248085 C46.4975558 457.82226225 45.54449541 454.20112826 44.60559654 450.56146812 C44.3914803 449.73883917 44.17736406 448.91621021 43.95675945 448.06865311 C41.51964055 438.62654085 39.29310183 429.13598409 37.07703209 419.64008141 C36.61204335 417.65692163 36.14678452 415.67382517 35.68128014 413.69078636 C34.68881687 409.46111915 33.69778186 405.23112121 32.70798302 401.0008297 C30.04083396 389.6019683 27.36604179 378.20490024 24.69031334 366.80805016 C24.41491407 365.63467031 24.13951481 364.46129047 23.85577011 363.25235367 C19.75396777 345.78032449 15.61255577 328.31807317 11.44031334 310.86273766 C10.90854856 308.63717209 10.37680508 306.41160144 9.84508324 304.18602562 C9.58385453 303.09267182 9.32262583 301.99931803 9.0534811 300.8728323 C-6.97333268 233.79232607 -6.97333268 233.79232607 -13.62169838 202.14740562 C-16.33278835 189.26845214 -19.29230211 176.46780117 -22.46593666 163.69476891 C-22.67071632 162.86198418 -22.87549599 162.02919945 -23.08648109 161.17117882 C-28.20685734 140.43164201 -35.49690621 127.30482431 -52.69640541 114.24945641 C-62.52511891 105.85306799 -65.34645604 92.83534912 -66.33288002 80.4279232 C-66.46489242 76.47229256 -66.50224704 72.52665209 -66.46593666 68.56976891 C-66.46187309 67.52718422 -66.46187309 67.52718422 -66.45772743 66.46353722 C-66.37356305 52.18159942 -65.9919179 36.13261552 -57.02843666 24.25726891 C-56.57210854 23.60113609 -56.11578041 22.94500328 -55.64562416 22.26898766 C-47.48556676 11.71011941 -34.56287194 5.79189448 -22.02843666 2.25726891 C-21.41874292 2.08453326 -20.80904918 1.91179761 -20.18087987 1.73382755 C-13.44481476 0.02411381 -6.9207443 -0.02368753 0 0 Z M352.76453209 137.15180016 C348.22621506 142.48110926 344.85401166 149.47105298 344.83734226 156.5212326 C344.83288442 157.39598775 344.82842657 158.2707429 344.82383364 159.17200577 C344.82401801 160.13375619 344.82420237 161.09550661 344.82439232 162.08640099 C344.82071563 163.10758581 344.81703894 164.12877064 344.81325084 165.18090045 C344.80219531 168.6192848 344.79836697 172.05763895 344.79456139 175.49603844 C344.78829812 177.95475422 344.78165144 180.41346906 344.77464867 182.87218285 C344.75540735 190.2629562 344.74481793 197.65372153 344.73592088 205.04451257 C344.73153684 208.52605517 344.72617028 212.00759625 344.72093201 215.48913765 C344.70391911 227.06487589 344.68942578 238.64061318 344.68218327 250.216362 C344.68027341 253.22023202 344.67835307 256.22410204 344.67639732 259.22797203 C344.67591358 259.97455904 344.67542984 260.72114605 344.67493144 261.49035691 C344.66663431 273.57977126 344.64130306 285.66908656 344.60881665 297.75845768 C344.57572605 310.17404434 344.55773265 322.58958072 344.55453902 335.00521171 C344.55237563 341.97460946 344.54365229 348.94386282 344.51807785 355.91321754 C344.49406795 362.47133812 344.49055775 369.02924584 344.50083923 375.5874176 C344.50133509 377.99280918 344.49499996 380.39821346 344.48128319 382.80356598 C344.4635849 386.09143342 344.47066121 389.37836671 344.48381615 392.66623497 C344.4728469 393.61460106 344.46187765 394.56296715 344.45057601 395.54007161 C344.52228174 402.98066097 346.26721767 409.08849178 351.15515709 414.81586266 C351.89894615 415.43590172 352.64273521 416.05594078 353.40906334 416.69476891 C354.15027428 417.33285484 354.89148521 417.97094078 355.65515709 418.62836266 C362.24787476 423.2643884 369.17165947 422.93898582 376.97156334 422.25726891 C383.99934714 420.56012176 388.97650974 415.05291004 392.97156334 409.25726891 C395.30766588 403.85577788 395.25776208 398.8439015 395.23898888 393.06737328 C395.24351999 392.04362518 395.2480511 391.01987708 395.25271952 389.96510631 C395.2653759 386.53599934 395.26374233 383.10705094 395.26209068 379.6779232 C395.26807514 377.21876382 395.2748805 374.75960631 395.28244591 372.30045128 C395.2982854 366.31445548 395.30455465 360.32852198 395.30567066 354.34251102 C395.30662197 349.4752578 395.31073641 344.60801755 395.31707191 339.74076843 C395.33467951 325.93208208 395.34391154 312.12342678 395.34241097 298.31472912 C395.3422911 297.19876068 395.3422911 297.19876068 395.34216881 296.06024742 C395.34208705 295.31535692 395.34200529 294.57046641 395.34192105 293.80300347 C395.34110828 281.7331732 395.36024478 269.66346777 395.38844554 257.59367361 C395.41719345 245.19154521 395.43098479 232.78947765 395.42925799 220.38731509 C395.42859474 213.42803124 395.43405817 206.46887827 395.45561409 199.50962448 C395.47576009 192.96376347 395.47513272 186.41813134 395.46058083 179.87224007 C395.45848947 177.4716883 395.46321298 175.07111932 395.47530174 172.67059708 C395.49075321 169.38944548 395.48144572 166.10924676 395.46603966 162.82811546 C395.47632678 161.88179573 395.48661391 160.935476 395.49721277 159.96047992 C395.40761133 151.30435597 392.38860858 144.02857545 386.97156334 137.25726891 C376.09494909 127.33265591 363.56908695 127.03735658 352.76453209 137.15180016 Z M547.51937073 138.49430013 C542.73167234 143.94753857 541.26203861 150.35263344 540.39775658 157.37476158 C540.27970986 158.2407495 540.16166314 159.10673743 540.04003924 159.99896741 C539.66921699 162.75002783 539.31918156 165.50318961 538.97156334 168.25726891 C538.7414376 170.01290107 538.51062722 171.76844364 538.27911377 173.52389336 C537.54619879 179.13877661 536.84851067 184.75783278 536.15247154 190.37738609 C535.88621091 192.51200737 535.61975607 194.64660444 535.35312462 196.78117943 C534.63784427 202.51402756 533.9259643 208.24729232 533.21529603 213.98071384 C532.76991527 217.57374196 532.32402553 221.16670661 531.87801743 224.75965691 C530.47865227 236.03496058 529.08164474 247.31055306 527.68771869 258.58653045 C526.0858308 271.54425976 524.4757725 284.50094006 522.85881549 297.45679736 C521.60348671 307.51936578 520.35567569 317.58284917 519.11344212 327.64704251 C518.37375757 333.63829354 517.63094122 339.62911497 516.88015747 345.61898613 C516.1746973 351.24878677 515.47863708 356.87967351 514.78952217 362.5114975 C514.53652742 364.56606411 514.28026587 366.6202318 514.02032471 368.67393112 C510.21743242 389.69919238 510.21743242 389.69919238 514.64343834 409.58539391 C520.12882961 416.49053351 525.34690123 420.6244173 534.28406334 422.13226891 C541.60016254 422.7046168 547.73782074 420.63779842 553.34656334 415.94476891 C558.57031168 411.17670925 561.35578613 406.26447606 562.5396328 399.29298973 C562.65753491 398.6060786 562.77543702 397.91916748 562.89691192 397.21144086 C564.52349229 387.41334233 565.68011169 377.54260913 566.88245201 367.6857357 C567.15833848 365.45489521 567.43465171 363.22410745 567.71135521 360.99336815 C568.455624 354.98195656 569.19348322 348.96977515 569.92975974 342.95738006 C570.54666589 337.92456631 571.16672235 332.89214269 571.78675157 327.8597129 C573.33274513 315.31119841 574.87252438 302.76193108 576.40938053 290.21229533 C577.74140926 279.33679233 579.0811295 268.46225322 580.42452129 257.5881485 C581.80832794 246.38640012 583.18706004 235.18403728 584.5606516 223.98103076 C585.33011562 217.70563247 586.10147971 211.43048319 586.87777328 205.15592575 C587.60688621 199.26076702 588.32950474 193.36484734 589.04720306 187.46828842 C589.31095777 185.31017118 589.57696086 183.1523273 589.84542656 180.99479103 C590.21272798 178.03996715 590.57173068 175.08424416 590.92876244 172.12816429 C591.03566263 171.28398325 591.14256282 170.43980221 591.25270241 169.57003993 C592.44506337 159.52312048 593.49499638 149.77914987 587.49500084 141.12836266 C582.43378214 134.8538381 577.12604912 131.55568589 569.15906334 130.25726891 C561.1514872 129.75217564 553.2418237 132.87635085 547.51937073 138.49430013 Z M155.97156334 137.25726891 C148.7260472 145.03177185 147.66617065 151.93314851 147.97156334 162.25726891 C148.22511724 165.67750794 148.62368986 169.0699468 149.05232811 172.47224998 C149.16863443 173.43831136 149.28494075 174.40437273 149.40477151 175.39970869 C149.79224685 178.60441188 150.18911845 181.8078766 150.58606529 185.0114193 C150.86745254 187.32184402 151.14828085 189.63233687 151.42859459 191.94289207 C152.18899964 198.19556139 152.95784126 204.44716577 153.72871232 210.69855237 C154.45392743 216.58666414 155.17403847 222.4753989 155.89462402 228.36407869 C157.40898797 240.73679648 158.93180295 253.10846307 160.4573321 265.47980844 C161.85068658 276.78129915 163.23398573 288.08399354 164.61246178 299.38730783 C166.03074382 311.01635594 167.45549608 322.64459415 168.88734215 334.27198023 C169.68994662 340.79084322 170.49004142 347.30998864 171.28369141 353.82994843 C172.03017594 359.95984019 172.78515007 366.08862823 173.54659843 372.21667862 C173.82412857 374.46163089 174.09870503 376.70695065 174.37005997 378.9526577 C174.74189782 382.02592581 175.1245479 385.09766621 175.50984764 388.16927147 C175.61394662 389.05090354 175.71804559 389.9325356 175.82529908 390.84088379 C177.36690971 402.87515149 180.34424856 410.89901441 189.90906334 418.63226891 C196.5465765 422.15421467 202.62582801 422.98719603 209.97156334 421.25726891 C217.0349431 419.04078301 221.716865 414.1798889 225.97156334 408.25726891 C231.91878542 396.14080901 227.05820723 377.57125973 225.44885826 364.73334312 C225.17705716 362.50752027 224.9060898 360.28159547 224.63588524 358.05557823 C223.90492526 352.05466043 223.16194705 346.05528845 222.41634345 340.05617476 C221.63475895 333.75345789 220.86324458 327.44950732 220.09029198 321.14572716 C218.79139341 310.5653715 217.48487937 299.98598099 216.17346764 289.40717125 C214.82812305 278.55460297 213.49039742 267.70112988 212.16077232 256.84662437 C210.55244238 243.71699731 208.93777735 230.58816504 207.31729126 217.46003151 C206.70075735 212.46465867 206.08655514 207.4690075 205.47423935 202.47311592 C204.75204101 196.58388146 204.02347309 190.6954678 203.2901268 184.80761147 C203.02314246 182.65614528 202.75825081 180.50441812 202.4956913 178.35240746 C201.0108098 154.70724377 201.0108098 154.70724377 189.04968834 135.73773766 C178.12876734 128.39362993 166.10695901 128.94373155 155.97156334 137.25726891 Z " fill="#355D34" transform="translate(103.0284366607666,403.74273109436035)"/>
<path d="M0 0 C2.47682862 1.11667189 3.80285968 2.15614635 5.6171875 4.1640625 C8.07740625 6.77904555 10.57503811 9.20539706 13.3046875 11.5390625 C19.87350579 17.22191301 25.66388571 23.44706668 31.3046875 30.0390625 C32.10648437 30.95171875 32.90828125 31.864375 33.734375 32.8046875 C46.71024358 47.68940683 57.59883617 63.86364045 67.3046875 81.0390625 C67.77648437 81.87276367 68.24828125 82.70646484 68.734375 83.56542969 C76.5568636 97.55190965 82.72651148 112.02799849 88.3046875 127.0390625 C88.60745605 127.84939941 88.91022461 128.65973633 89.22216797 129.49462891 C98.47694019 154.6412139 104.37112867 182.19295922 104.5078125 209.05078125 C104.51464554 209.97428879 104.52147858 210.89779633 104.52851868 211.84928894 C104.54546989 214.80841786 104.55183781 217.76738795 104.5546875 220.7265625 C104.55769363 222.23515839 104.55769363 222.23515839 104.5607605 223.77423096 C104.56757996 237.71238371 104.1933998 251.28371395 101.66845703 265.03027344 C101.1266937 268.02197055 100.71830746 271.02726665 100.3046875 274.0390625 C100.7171875 273.05808594 101.1296875 272.07710938 101.5546875 271.06640625 C113.39600231 243.24070791 129.92405835 216.59102128 151.83203125 195.51171875 C153.54134662 193.85291508 153.54134662 193.85291508 155.7421875 191.0390625 C158.33868448 187.99926115 161.06404721 185.51548175 164.1015625 182.93359375 C166.37105338 180.98199255 168.55075333 178.95269258 170.7421875 176.9140625 C217.10219623 135.23258676 284.53829391 105.3852459 347.3046875 106.0390625 C349.16841862 121.28884398 349.70687235 136.37014112 349.6796875 151.7265625 C349.67887177 153.46860962 349.67887177 153.46860962 349.67803955 155.24584961 C349.63677357 174.48437854 348.647275 193.07738272 345.3046875 212.0390625 C345.09038086 213.27366211 344.87607422 214.50826172 344.65527344 215.78027344 C338.85389739 248.21562337 329.04884977 279.99680069 313.3046875 309.0390625 C312.9452002 309.70728027 312.58571289 310.37549805 312.21533203 311.06396484 C297.0228079 339.14871335 276.70913788 365.44749484 251.3046875 385.0390625 C250.75616119 385.53301828 250.20763489 386.02697407 249.64248657 386.53589821 C244.19460374 391.16844685 240.14914405 391.88569332 233.125 391.72021484 C232.13872116 391.721091 231.15244232 391.72196716 230.13627625 391.72286987 C226.89992041 391.71871398 223.66567794 391.67215495 220.4296875 391.625 C218.17668795 391.6138008 215.92367372 391.60526404 213.6706543 391.59927368 C207.75855733 391.57643275 201.8473535 391.51754908 195.93560791 391.4510498 C189.89599691 391.38952575 183.85624071 391.36223699 177.81640625 391.33203125 C165.97877559 391.26780228 154.141806 391.16547926 142.3046875 391.0390625 C142.22690063 390.24748245 142.14911377 389.4559024 142.06896973 388.64033508 C141.70685842 384.99774452 141.33396742 381.35633172 140.9609375 377.71484375 C140.77772949 375.84753601 140.77772949 375.84753601 140.59082031 373.94250488 C136.98147754 339.1112049 119.77004904 310.30648422 95.3046875 286.0390625 C94.69109375 285.42804688 94.0775 284.81703125 93.4453125 284.1875 C66.82907529 259.22102956 29.46148061 247.79903833 -6.41796875 248.71875 C-15.32004205 249.09548563 -23.98567589 250.16811754 -32.6953125 252.0390625 C-33.39849609 252.18939941 -34.10167969 252.33973633 -34.82617188 252.49462891 C-60.15713378 258.24244142 -83.66959743 272.56270455 -101.6953125 291.0390625 C-102.24316406 291.53019531 -102.79101562 292.02132813 -103.35546875 292.52734375 C-127.58557933 314.96631679 -139.8626895 348.89498086 -142.7734375 381.01953125 C-142.86318848 381.98644897 -142.95293945 382.9533667 -143.04541016 383.94958496 C-143.26440478 386.31253698 -143.48098455 388.67568342 -143.6953125 391.0390625 C-156.6391693 391.27152532 -169.5825236 391.44882982 -182.52804852 391.55718422 C-188.54036771 391.60920974 -194.55125115 391.67968841 -200.56274414 391.79345703 C-206.37247986 391.90270991 -212.18084138 391.96202856 -217.99152565 391.98783493 C-220.19991485 392.00620679 -222.40823507 392.04208376 -224.61603355 392.09636307 C-237.10892242 392.39108009 -245.82598024 392.28750733 -255.27314758 383.53860474 C-256.47211922 382.30133133 -256.47211922 382.30133133 -257.6953125 381.0390625 C-259.05123105 379.8468435 -260.41363959 378.66185116 -261.7890625 377.4921875 C-262.93171098 376.43222215 -264.06723741 375.36452458 -265.1953125 374.2890625 C-265.81857422 373.69818848 -266.44183594 373.10731445 -267.08398438 372.49853516 C-289.71011316 350.83143264 -307.59987275 325.51334952 -320.6953125 297.0390625 C-321.05189941 296.26546387 -321.40848633 295.49186523 -321.77587891 294.69482422 C-335.83226402 263.84632927 -344.07548687 231.56225073 -348.6953125 198.0390625 C-348.78993774 197.35691681 -348.88456299 196.67477112 -348.98205566 195.97195435 C-350.76656286 182.6744305 -351.00544158 169.46409561 -350.95605469 156.06030273 C-350.94533772 152.60968416 -350.95601263 149.15958725 -350.96875 145.70898438 C-350.97590421 132.3624514 -350.34553562 119.28501626 -348.6953125 106.0390625 C-340.10470909 105.83568318 -331.92479803 106.28724392 -323.4453125 107.6640625 C-322.32761475 107.84300049 -321.20991699 108.02193848 -320.05834961 108.20629883 C-292.2762779 112.83241668 -265.0844478 120.76802358 -239.6953125 133.0390625 C-238.90640625 133.41111816 -238.1175 133.78317383 -237.3046875 134.16650391 C-214.09050136 145.13027932 -193.01047683 159.17413494 -173.6953125 176.0390625 C-172.95667969 176.67714844 -172.21804688 177.31523437 -171.45703125 177.97265625 C-169.52512564 179.64903927 -167.6093657 181.34234204 -165.6953125 183.0390625 C-164.88320313 183.74675781 -164.07109375 184.45445312 -163.234375 185.18359375 C-158.67283084 189.20405384 -154.42336754 193.26210836 -150.51171875 197.91796875 C-149.22610673 199.41923182 -147.89537663 200.88239453 -146.53515625 202.31640625 C-128.57046378 221.27426871 -115.037546 243.86019469 -104.3046875 267.55859375 C-103.048293 270.80109455 -103.048293 270.80109455 -101.6953125 272.0390625 C-101.90027344 270.77191406 -102.10523438 269.50476563 -102.31640625 268.19921875 C-102.58865389 266.50001798 -102.86078296 264.8007982 -103.1328125 263.1015625 C-103.26751953 262.27076172 -103.40222656 261.43996094 -103.54101562 260.58398438 C-103.67314453 259.75576172 -103.80527344 258.92753906 -103.94140625 258.07421875 C-104.06185303 257.325354 -104.1822998 256.57648926 -104.30639648 255.80493164 C-105.32591184 248.55440466 -105.86121559 241.44846331 -105.8984375 234.125 C-105.90545181 233.20080261 -105.91246613 232.27660522 -105.91969299 231.32440186 C-105.93712148 228.35423875 -105.94354626 225.38427488 -105.9453125 222.4140625 C-105.94598724 221.40051697 -105.94666199 220.38697144 -105.94735718 219.3427124 C-105.93184238 204.70167092 -105.56984932 190.43954675 -102.6953125 176.0390625 C-102.51838867 175.11158203 -102.34146484 174.18410156 -102.15917969 173.22851562 C-100.84898873 166.45353856 -99.3455042 159.73898243 -97.6953125 153.0390625 C-97.48036133 152.16572266 -97.26541016 151.29238281 -97.04394531 150.39257812 C-82.90460366 94.38472253 -50.34253958 45.32097347 -9.1328125 5.5390625 C-8.56135498 4.96865234 -7.98989746 4.39824219 -7.40112305 3.81054688 C-3.41115319 0.049437 -3.41115319 0.049437 0 0 Z M-100.6953125 276.0390625 C-99.6953125 280.0390625 -99.6953125 280.0390625 -99.6953125 280.0390625 Z M98.3046875 276.0390625 C99.3046875 280.0390625 99.3046875 280.0390625 99.3046875 280.0390625 Z M-99.6953125 280.0390625 C-98.6953125 283.0390625 -98.6953125 283.0390625 -98.6953125 283.0390625 Z M97.3046875 280.0390625 C98.3046875 283.0390625 98.3046875 283.0390625 98.3046875 283.0390625 Z " fill="#5E9A51" transform="translate(473.6953125,12.9609375)"/>
<path d="M0 0 C0.86238281 0.62777344 1.72476563 1.25554687 2.61328125 1.90234375 C7.02958345 5.17560303 10.68899827 8.63097148 14.19921875 12.859375 C16.15297739 15.18184731 18.22770635 17.35721915 20.3125 19.5625 C43.11874317 45.10857949 54 78.18896243 54 112 C-40.38 112 -134.76 112 -232 112 C-232 75.26648519 -218.99887949 41.19470957 -193.41015625 14.55078125 C-190.99463705 12.08222773 -190.99463705 12.08222773 -189.08203125 9.49609375 C-186.57021086 6.48473685 -183.71388304 4.13255874 -180.625 1.75 C-180.00633057 1.27183838 -179.38766113 0.79367676 -178.75024414 0.30102539 C-124.68263068 -40.93675256 -54.11414333 -41.3731678 0 0 Z " fill="#FE7F27" transform="translate(562,292)"/>
</svg>
