<svg xmlns="http://www.w3.org/2000/svg" width="946" height="946"><path fill="#2d7a39" d="M471 13c3.52910489 1.23248127 5.78087432 2.44228803 8.3125 5.1875 2.46445547 2.58206506 4.97664612 4.98966002 7.6875 7.3125 6.56881829 5.68285051 12.35919821 11.90800418 18 18.5l2.4296875 2.765625C520.40555608 61.65034433 531.29414867 77.82457795 541 95l1.4296875 2.52636719C550.2521761 111.51284715 556.42182398 125.98893599 562 141l.91748047 2.45556641c9.25477222 25.14658499 15.1489607 52.69833031 15.28564453 79.55615234l.02070618 2.79850769c.01695121 2.95912892.02331913 5.91809901.02616882 8.87727356l.006073 3.04766846c.00681946 13.93815275-.3673607 27.50948299-2.89230347 41.25604248C574.8220062 281.98290805 574.41361996 284.98820415 574 288l1.25-2.97265625c11.84131481-27.82569834 28.36937085-54.47538497 50.27734375-75.5546875C627.23665912 207.81385258 627.23665912 207.81385258 629.4375 205c2.59649698-3.03980135 5.32185971-5.52358075 8.359375-8.10546875 2.26949088-1.9516012 4.44919083-3.98090117 6.640625-6.01953125C690.79750873 149.19352426 758.23360641 119.3461834 821 120c1.86373112 15.24978148 2.40218485 30.33107862 2.375 45.6875l-.00164795 3.51928711C823.33208607 188.44531604 822.3425875 207.03832022 819 226l-.64941406 3.74121094C812.54920989 262.17656087 802.74416227 293.95773819 787 323l-1.08935547 2.02490234C770.59291568 353.34110305 750.29057219 378.97509406 725 399c-1.05590998.87288324-2.10940559 1.74869415-3.16064453 2.62719727L719 404l2.09768009.00444412c16.90442667.03717785 33.80862256.09633677 50.712883.17945862 8.17504642.03967761 16.34999816.07212702 24.52513027.08709335 7.13193055.01307539 14.26365177.04018849 21.39546436.08361698 3.77041131.02248369 7.54056571.03830558 11.31105.03727078 3.5616303-.00075447 7.12269553.01750538 10.6841793.04928398 1.90433075.01234864 3.8087571.00549676 5.71311188-.0023098C863.69026763 404.65526195 881.27694902 410.84586513 895 423c15.22203707 15.90771442 14.78879698 37.65899576 14.3515625 58.34375-.3690315 12.75821942-2.27564347 26.49478445-11.61328125 35.9453125C895.21394484 519.60078252 892.63297442 521.8132243 890 524c-12.28661429 10.40136659-18.43410656 20.26808111-22.44140625 36.0078125l-.89491272 3.42141724C863.53823884 575.51867381 860.77227601 587.68696452 858.0625 599.875c-.47801901 2.13031983-.95653532 4.26052813-1.43554688 6.390625-1.99433843 8.8840804-3.98027833 17.76993984-5.9262638 26.66474915-5.5487708 25.3561695-11.53502545 50.60060483-17.58466912 75.84140777-2.49283911 10.40301556-4.98013132 20.80735505-7.46367645 31.21259308l-.84357452 3.53347397c-3.77538818 15.82436301-7.49110276 31.66140161-11.13816262 47.51583099-.72222438 3.13912419-1.44589787 6.27791099-2.169981 9.41660691-2.03232318 8.81339316-4.06048925 17.62754497-6.05979633 26.44849395-.81444073 3.58182454-1.63905757 7.16125505-2.46609974 10.7401886-.37335083 1.62575905-.74243442 3.25250636-1.10642624 4.88038635C795.23544969 872.16055138 782.74664512 900.53485496 756.5 917.75c-1.82174815 1.1027039-3.65471224 2.18715698-5.5 3.25l-2.35546875 1.3671875c-11.24641747 6.06590691-24.2117033 9.79634794-36.96078491 9.75979614l-2.54038149.00473368c-2.82173188.0040025-5.64340988.00082716-8.46514219-.00232279-2.03843498.00132544-4.07686971.00307285-6.115304.00520706-5.61144828.00452025-11.22287884.00262667-16.83432746-.00042772-4.80985203-.00183699-9.61969994-.00003734-14.42955178.00178874-15.15387644.00570295-30.30773884.00053458-45.46161237-.00770916-4.8159121-.002602-9.63182423-.00476336-14.44773665-.00665616-38.23851211-.01512597-76.47697733-.05158342-114.71545882-.10170448-10.43800308-.01366629-20.87600671-.02576754-31.3140132-.03651084-32.54036969-.0336014-65.08063253-.08162037-97.62090335-.17049859-2.75915392-.00750024-5.51830794-.01496817-8.277462-.02241707l-2.05855015-.00558956c-10.23694956-.02752922-20.47387943-.04429639-30.71085903-.05532353-11.65186397-.01256806-23.30361632-.03939204-34.95540637-.08396566-5.94064429-.0223699-11.88112694-.03853638-17.82181722-.03750574-5.44548654.00074247-10.89059582-.01708419-16.33598447-.04925752-1.96207251-.00842944-3.92418759-.01028488-5.88627004-.00462484C227.57264912 931.59457347 213.53286988 929.52081546 199 922l-2.66015625-1.265625c-22.12228311-11.07705686-37.57709618-32.64510958-45.63454628-55.59916306-1.17930501-3.5702186-2.1323654-7.19135259-3.07126427-10.83101272l-.64883709-2.49281502c-2.4371189-9.44211225-4.66365762-18.93266901-6.87972736-28.4285717-.46498874-1.98315978-.93024757-3.96625624-1.39575195-5.94929504-.99246326-4.22966722-1.98349828-8.45966515-2.97329712-12.68995667-2.66714906-11.3988614-5.34194123-22.79592946-8.01766968-34.19277954l-.83454323-3.55569649c-4.10180234-17.47202918-8.24321434-34.93428049-12.41545677-52.38961601a355792 355792 0 0 1-1.5952301-6.67671204l-.79160214-3.31319332c-16.02681378-67.08050622-16.02681378-67.08050622-22.67517948-98.72542667C86.69564831 593.01118323 83.73613455 580.21053226 80.5625 567.4375l-.62054443-2.52359009c-5.12037625-20.73953681-12.41042512-33.86635451-29.60992432-46.92172241-9.8287135-8.39638842-12.65005063-21.41410729-13.63647461-33.8215332-.1320124-3.95563065-.16936702-7.90127112-.13305664-11.8581543l.00820923-2.10623169C36.65487361 455.92433052 37.03651876 439.87534662 46 428l1.3828125-1.98828125C55.5428699 415.4528505 68.46556472 409.53462558 81 406l1.82753658-.52127647c6.91103934-1.76181661 13.66935464-1.78528674 20.77036381-1.79757119 1.35107004-.0093152 2.7021344-.0194862 4.05319214-.03044128 3.64190093-.02713482 7.28376354-.04239995 10.92573857-.05542803 3.81569679-.01570342 7.63131616-.04247038 11.44695735-.06803083 7.21390352-.04666078 14.42782181-.08346607 21.64179844-.11667288 8.21775455-.0383115 16.4354311-.08769781 24.65311974-.13798415C193.21241454 403.16946438 210.10616771 403.08014309 227 403l-2.71548462-2.2925415c-1.18551546-1.00174701-2.37101039-2.00351831-3.55648804-3.00531006l-1.78627014-1.50772095C213.14021448 391.29021919 207.53646693 386.20117129 202 381l-1.98828125-1.859375c-4.63622814-4.47635821-8.68545951-9.40469979-12.67822266-14.45654297-.93228558-1.17739032-1.8699081-2.35056554-2.81152343-3.52050781C171.86736811 345.40553156 161.44438252 328.36118346 153 310l-1.08056641-2.34423828C137.86304848 276.80726677 129.61982563 244.52318823 125 211l-.28674316-2.06710815c-1.7845072-13.29752385-2.02338592-26.50785874-1.97399903-39.91165162.01071697-3.45061857.00004206-6.90071548-.01269531-10.35131835C122.71940829 145.3233889 123.34977688 132.24595376 125 119c8.59060341-.20337932 16.77051447.24818142 25.25 1.625l3.38696289.54223633C181.4190346 125.79335418 208.6108647 133.72896108 234 146l2.390625 1.12744141C259.60481114 158.09121682 280.68483567 172.13507244 300 189l2.23828125 1.93359375C304.17018686 192.60997677 306.0859468 194.30327954 308 196l2.4609375 2.14453125c4.56154416 4.02046009 8.81100746 8.07851461 12.72265625 12.734375 1.28561202 1.50126307 2.61634212 2.96442578 3.9765625 4.3984375 17.96469247 18.95786246 31.49761025 41.54378844 42.23046875 65.2421875C370.6470195 283.76203205 370.6470195 283.76203205 372 285l-.62109375-3.83984375c-.27224764-1.69920077-.54437671-3.39842055-.81640625-5.09765625l-.40820312-2.51757812-.40039063-2.50976563-.36499023-2.26928711c-1.01951536-7.25052698-1.55481911-14.35646833-1.59204102-21.67993164l-.02125549-2.80059814c-.01742849-2.97016311-.02385327-5.94012698-.02561951-8.91033936l-.00204468-3.0713501C367.76347012 217.66260842 368.12546318 203.40048425 371 189l.53613281-2.81054688C372.84632377 179.41447606 374.3498083 172.69991993 376 166l.65136719-2.64648438C391.4709343 104.65119449 426.39936458 53.19479758 471 13m-98 276 1 4Zm199 1 1 4Zm-198 3 1 3Zm197 1 1 3Zm-196 3 1 2Zm195 1 1 2ZM458.75 538.6875c-5.69246394 4.56984655-8.84922896 10.32893299-10.75 17.3125-.29124998 3.39714543-.27850126 6.78188674-.26742554 10.18989563l-.01373064 3.10226697c-.01265638 3.42910697-.01102281 6.85805536-.00937116 10.2871831-.00598446 2.45915939-.01278982 4.9183169-.02035523 7.37747193-.01583949 5.9859958-.02210874 11.9719293-.02322475 17.95794026-.00095131 4.86725321-.00506575 9.73449347-.01140126 14.60174258-.0176076 13.80868636-.02683962 27.61734166-.02533905 41.42603932l.00024216 2.25448169.00024776 2.25724396c.00081277 12.06983026-.01832373 24.13953569-.04652449 36.20932986-.02874791 12.4021284-.04253925 24.80419595-.04081245 37.20635851.00066324 6.95928385-.00480018 13.91843683-.0263561 20.87769061-.020146 6.54586102-.01951863 13.09149314-.00496674 19.63738442.00209136 2.40055177-.00263215 4.80112075-.01472091 7.20164299-.01545147 3.2811516-.00614398 6.56135032.00926208 9.84248161l-.03117311 2.86763555c.07693806 7.43275295 1.82661465 13.54065684 6.70924318 19.26180476L456.4375 820.4375l2.24609375 1.93359375C465.08382665 826.87176343 472.35797775 827.17348518 480 827c7.01401099-1.50056637 12.06284191-7.28834812 16-13 2.33610254-5.40149102 2.28619874-10.41336741 2.26742554-16.18989563l.01373064-3.10226697c.01265638-3.42910697.01102281-6.85805536.00937116-10.2871831.00598446-2.45915939.01278982-4.9183169.02035523-7.37747193.01583949-5.9859958.02210874-11.9719293.02322475-17.95794026.00095131-4.86725321.00506575-9.73449347.01140126-14.60174258.0176076-13.80868636.02683962-27.61734166.02533905-41.42603932l-.00024216-2.25448169-.00024776-2.25724396c-.00081277-12.06983026.01832373-24.13953569.04652449-36.20932986.02874791-12.4021284.04253925-24.80419595.04081245-37.20635851-.00066324-6.95928385.00480018-13.91843683.0263561-20.87769061.020146-6.54586102.01951863-13.09149314.00496674-19.63738442-.00209136-2.40055177.00263215-4.80112075.01472091-7.20164299.01545147-3.2811516.00614398-6.56135032-.00926208-9.84248161l.03117311-2.86763555C498.45946502 558.30933488 497.01129332 553.62077885 494 548l-1.6875-3.1875c-9.36542487-11.39038159-21.39205609-14.43652267-33.5625-6.125M259 541c-7.24551614 7.77450294-8.30539269 14.6758796-8 25 .2535539 3.42023903.65212652 6.8126779 1.08076477 10.21498108l.3524434 2.9274587c.38747534 3.2047032.78434694 6.40816792 1.18129378 9.61171061.28138725 2.31042472.56221556 4.62091757.8425293 6.93147278.76040506 6.25266931 1.52924667 12.50427369 2.30011773 18.75566029.72521511 5.88811178 1.44532615 11.77684653 2.1659117 17.66552633 1.51436395 12.37271779 3.03717893 24.74438438 4.56270808 37.11572975 1.39335448 11.30149071 2.77665363 22.6041851 4.15512968 33.90749938 1.41828204 11.62904811 2.8430343 23.25728633 4.27488038 34.8846724.80260446 6.518863 1.60269926 13.03800841 2.39634925 19.5579682.74648453 6.12989177 1.50145867 12.25867981 2.26290703 18.38673019.27753013 2.24495227.55210659 4.49027203.82346153 6.73597908.37183785 3.07326811.75448793 6.14500852 1.13978767 9.21661377l.31545144 2.67161233C280.39534637 806.61788258 283.37268523 814.6417455 292.9375 822.375c6.63751316 3.52194576 12.71676467 4.35492713 20.0625 2.625 7.06337976-2.2164859 11.74530166-7.07738001 16-13 5.94722209-12.1164599 1.08664389-30.68600918-.52270508-43.52392578-.2718011-2.22582286-.54276846-4.45174766-.81297302-6.67776489-.73095998-6.00091781-1.47393819-12.00028978-2.21954179-17.99940348-.7815845-6.30271686-1.55309887-12.60666744-2.32605147-18.9104476-1.29889857-10.58035565-2.60541261-21.15974617-3.91682434-31.73855591-1.34534459-10.85256828-2.68307022-21.70604137-4.01269532-32.56054687-1.60832994-13.12962706-3.22299497-26.25845933-4.84348106-39.38659287-.61653391-4.99537283-1.23073612-9.99102401-1.84305191-14.98691558-.72219834-5.88923446-1.45076626-11.77764813-2.18411255-17.66550446-.26698434-2.15146619-.53187599-4.30319335-.7944355-6.45520401-1.4848815-23.64516368-1.4848815-23.64516368-13.44600296-42.6146698C281.157204 532.13636102 269.13539567 532.68646264 259 541m391.5478074 2.23703122c-4.7876984 5.45323845-6.25733213 11.85833332-7.12161416 18.88046146l-.35771734 2.62420582C642.69765365 567.49275892 642.34761822 570.24592071 642 573c-.23012574 1.75563217-.46093612 3.51117474-.69244957 5.26662445-.73291498 5.61488325-1.4306031 11.23393942-2.12664223 16.85349274-.26626062 2.13462128-.53271547 4.26921834-.79934692 6.40379333-.71528035 5.73284813-1.42716032 11.46611289-2.13782859 17.19953442-.44538076 3.59302812-.8912705 7.18599276-1.3372786 10.77894306-1.39936515 11.27530367-2.79637269 22.55089615-4.19029874 33.82687354-1.60188789 12.95772931-3.21194619 25.91440962-4.8289032 38.87026692-1.25532878 10.06256842-2.5031398 20.1260518-3.74537337 30.19024515-.73968455 5.99125102-1.4825009 11.98207246-2.23328465 17.97194361-.70546017 5.62980064-1.40152039 11.26068739-2.0906353 16.89251137-.25299475 2.05456662-.5092563 4.1087343-.76919746 6.16243363-3.80289229 21.02526125-3.80289229 21.02526125.62311363 40.91146278 5.48539127 6.9051396 10.70346289 11.0390234 19.640625 12.546875 7.3160992.5723479 13.4537574-1.49447048 19.0625-6.1875 5.22374834-4.76805966 8.0092228-9.68029284 9.19306946-16.65177917l.35727912-2.08154887c1.62658037-9.79809854 2.78319977-19.66883173 3.98554009-29.52570516.27588647-2.2308405.5521997-4.46162825.8289032-6.69236756.74426879-6.01141158 1.48212801-12.023593 2.21840453-18.03598809.61690615-5.03281374 1.23696261-10.06523737 1.85699183-15.09766716 1.54599357-12.54851449 3.08577281-25.09778182 4.62262896-37.64741756 1.33202873-10.87550301 2.67174897-21.75004212 4.01514076-32.62414684 1.38380665-11.20174838 2.76253875-22.40411122 4.13613031-33.60711773.76946402-6.2753983 1.54082811-12.55054757 2.31712169-18.82510501.72911292-5.89515873 1.45173145-11.79107842 2.16942977-17.68763733.26375471-2.15811725.5297578-4.31596113.7982235-6.47349739.36730142-2.95482389.72630412-5.91054688 1.08333588-8.86662674l.32393998-2.55812437c1.19236095-10.04691945 2.24229396-19.79089005-3.75770158-28.44167727C685.4622188 539.5965692 680.15448578 536.29841699 672.1875 535c-8.00757614-.50509326-15.91723964 2.61908194-21.6396926 8.23703122"/><path fill="#5e9a51" d="M471 13c3.52910489 1.23248127 5.78087432 2.44228803 8.3125 5.1875 2.46445547 2.58206506 4.97664612 4.98966002 7.6875 7.3125 6.56881829 5.68285051 12.35919821 11.90800418 18 18.5l2.4296875 2.765625C520.40555608 61.65034433 531.29414867 77.82457795 541 95l1.4296875 2.52636719C550.2521761 111.51284715 556.42182398 125.98893599 562 141l.91748047 2.45556641c9.25477222 25.14658499 15.1489607 52.69833031 15.28564453 79.55615234l.02070618 2.79850769c.01695121 2.95912892.02331913 5.91809901.02616882 8.87727356l.006073 3.04766846c.00681946 13.93815275-.3673607 27.50948299-2.89230347 41.25604248C574.8220062 281.98290805 574.41361996 284.98820415 574 288l1.25-2.97265625c11.84131481-27.82569834 28.36937085-54.47538497 50.27734375-75.5546875C627.23665912 207.81385258 627.23665912 207.81385258 629.4375 205c2.59649698-3.03980135 5.32185971-5.52358075 8.359375-8.10546875 2.26949088-1.9516012 4.44919083-3.98090117 6.640625-6.01953125C690.79750873 149.19352426 758.23360641 119.3461834 821 120c1.86373112 15.24978148 2.40218485 30.33107862 2.375 45.6875l-.00164795 3.51928711C823.33208607 188.44531604 822.3425875 207.03832022 819 226l-.64941406 3.74121094C812.54920989 262.17656087 802.74416227 293.95773819 787 323l-1.08935547 2.02490234C770.7181204 353.10965085 750.40445038 379.40843234 725 399l-1.33683395 1.49627781c-5.82175885 5.72158691-12.78189646 5.26241056-20.43099499 5.26136875-1.88891955-.0196629-3.77783327-.03989152-5.66674137-.06062508-2.01412128-.00010345-4.02824413.00242896-6.04235935.00736809-5.53075471.00591426-11.06075876-.02568134-16.5913651-.06332183-5.96570601-.03395006-11.93141778-.03281729-17.89720512-.03604149-11.01027479-.01124099-22.02027714-.04951994-33.03042269-.10217656-10.17379717-.04862519-20.34756783-.08752466-30.52144193-.11594783l-2.04566729-.00575382c-3.42863674-.00961172-6.8572739-.01906416-10.28591132-.02843159-6.97132995-.01910505-13.94265625-.03941717-20.91398108-.06029702l-2.11457158-.00631231c-10.02958831-.0301807-20.05913667-.06702409-30.08868561-.10817837-36.65232025-.14994833-73.30247826-.1790006-109.95500648-.10069698-10.70668375.02271212-21.41333397.03527979-32.12004139.03804838l-2.10647483.0005702c-6.94053266.00170558-13.8810642.00191415-20.82159688.00032707-3.41457058-.00073143-6.82914109-.00106299-10.24371174-.00115667l-2.03622607-.00008788c-10.80054384.00043812-21.60076962.03294328-32.40121434.07676345-10.85949593.04324125-21.71851533.04869265-32.57805709.01892379-5.87966353-.01500555-11.75812728-.01368318-17.63766068.03175622-5.38679951.04134392-10.77152952.03632985-16.15831137-.00492561-1.94398421-.00679958-3.88811817.00316464-5.8319006.03198695-11.62950139.16146332-18.77671431-.87824642-27.60328912-8.77870166L216 394c-1.3596095-1.18800811-2.72287566-2.37188359-4.09375-3.546875-1.14264848-1.05996535-2.27817491-2.12766292-3.40625-3.203125l-1.88867188-1.79052734C183.98519934 363.79237014 166.09543975 338.47428702 153 310l-1.08056641-2.34423828C137.86304848 276.80726677 129.61982563 244.52318823 125 211l-.28674316-2.06710815c-1.7845072-13.29752385-2.02338592-26.50785874-1.97399903-39.91165162.01071697-3.45061857.00004206-6.90071548-.01269531-10.35131835C122.71940829 145.3233889 123.34977688 132.24595376 125 119c8.59060341-.20337932 16.77051447.24818142 25.25 1.625l3.38696289.54223633C181.4190346 125.79335418 208.6108647 133.72896108 234 146l2.390625 1.12744141C259.60481114 158.09121682 280.68483567 172.13507244 300 189l2.23828125 1.93359375C304.17018686 192.60997677 306.0859468 194.30327954 308 196l2.4609375 2.14453125c4.56154416 4.02046009 8.81100746 8.07851461 12.72265625 12.734375 1.28561202 1.50126307 2.61634212 2.96442578 3.9765625 4.3984375 17.96469247 18.95786246 31.49761025 41.54378844 42.23046875 65.2421875C370.6470195 283.76203205 370.6470195 283.76203205 372 285l-.62109375-3.83984375c-.27224764-1.69920077-.54437671-3.39842055-.81640625-5.09765625l-.40820312-2.51757812-.40039063-2.50976563-.36499023-2.26928711c-1.01951536-7.25052698-1.55481911-14.35646833-1.59204102-21.67993164l-.02125549-2.80059814c-.01742849-2.97016311-.02385327-5.94012698-.02561951-8.91033936l-.00204468-3.0713501C367.76347012 217.66260842 368.12546318 203.40048425 371 189l.53613281-2.81054688C372.84632377 179.41447606 374.3498083 172.69991993 376 166l.65136719-2.64648438C391.4709343 104.65119449 426.39936458 53.19479758 471 13m-98 276 1 4Zm199 1 1 4Zm-198 3 1 3Zm197 1 1 3Zm-196 3 1 2Zm195 1 1 2Z"/><path fill="#fe7f27" d="m562 293 2.62890625 1.91015625c4.40751801 3.27394315 8.06414734 6.72570026 11.5703125 10.94921875 1.95375864 2.32247231 4.0284876 4.49784415 6.11328125 6.703125 20.77320393 23.26880034 33.77857663 55.42741338 33.70166016 86.68334961l-.00619507 3.2674408L616 405c-20.85415982.03176513-41.70831987.0513517-62.5625.0625l-2.38950205.00131607C498.21760541 405.0921073 445.39137824 404.89852938 392.5625 404.5l-2.4047761-.01810217C370.1050702 404.33076438 350.0524967 404.17077128 330 404c-.0130726-1.89687264-.0223368-3.79377174-.0300293-5.69067383l-.01689148-3.20100403c.49611084-32.86544709 16.17141233-65.16578241 38.63676453-88.55754089 2.4155192-2.46855352 2.4155192-2.46855352 4.328125-5.0546875 2.51182039-3.0113569 5.36814821-5.36353501 8.45703125-7.74609375l1.87475586-1.44897461C437.69313724 250.77664641 507.65594464 252.09081618 562 293"/></svg>